PathFileType	4	(X/Y/Z)	HSS_squat1.trc
DataRate	CameraRate	NumFrames	NumMarkers	Units	OrigDataRate	OrigDataStartFrame	OrigNumFrames
120.0	120.0	8	44	mm	120.0	273	1088
Frame#	Time		R.Shoulder		Offset		L.Shoulder		R.Elbow		R.Wrist.Radial		R.Wrist		R.Hand		L.Elbow		L.Wrist.Radial		L.Wrist		L.Hand		R.Hip		V.Sacral		L.PSIS		L.Hip		R.Thigh.Upper		R.Thigh.Front		R.Thigh.Rear		X.Shell.Lower.Thigh.Right		R.Knee.Lateral		R.Shank.Upper		R.Shank.Front		R.Shank.Rear		X.Shell.Lower.Shank.Right		R.Ankle.Lateral		R.Heel		R.Toe		L.Thigh.Upper		L.Thigh.Front		L.Thigh.Rear		X.Shell.Lower.Thigh.Left		L.Knee.Lateral		L.Shank.Upper		L.Shank.Front		L.Shank.Rear		X.Shell.Lower.Shank.Left		L.Ankle.Lateral		L.Heel		L.Toe		R.Troc		L.Troc		R.PSIS		L.ASIS		R.ASIS
			X1	Y1	Z1	X2	Y2	Z2	X3	Y3	Z3	X4	Y4	Z4	X5	Y5	Z5	X6	Y6	Z6	X7	Y7	Z7	X8	Y8	Z8	X9	Y9	Z9	X10	Y10	Z10	X11	Y11	Z11	X12	Y12	Z12	X13	Y13	Z13	X14	Y14	Z14	X15	Y15	Z15	X16	Y16	Z16	X17	Y17	Z17	X18	Y18	Z18	X19	Y19	Z19	X20	Y20	Z20	X21	Y21	Z21	X22	Y22	Z22	X23	Y23	Z23	X24	Y24	Z24	X25	Y25	Z25	X26	Y26	Z26	X27	Y27	Z27	X28	Y28	Z28	X29	Y29	Z29	X30	Y30	Z30	X31	Y31	Z31	X32	Y32	Z32	X33	Y33	Z33	X34	Y34	Z34	X35	Y35	Z35	X36	Y36	Z36	X37	Y37	Z37	X38	Y38	Z38	X39	Y39	Z39	X40	Y40	Z40	X41	Y41	Z41	X42	Y42	Z42	X43	Y43	Z43	X44	Y44	Z44

273	2.26667	160.16513	1465.06848	-129.43123	-134.99454	1389.48059	-1.82615	-215.38509	1478.95923	-135.45950	200.21269	1094.66846	-110.72826	161.40480	894.52203	-269.44736	227.97937	879.48615	-241.58649	212.24544	813.79663	-297.23010	-272.25369	1112.94897	-126.40171	-277.88736	909.63635	-261.68225	-207.25218	912.33276	-275.36417	-248.88789	841.15851	-308.60977	122.88239	1031.42029	-155.23508	-30.05443	1013.85938	-40.34221	-69.85464	1020.52179	-43.03577	-175.19589	1031.24341	-163.35637	179.26021	696.61194	-189.28291	167.37532	657.07776	-221.71463	190.17279	659.63220	-164.25725	176.22694	624.93170	-191.30748	171.53703	518.97198	-125.54608	234.08424	378.66879	-103.34685	216.29744	332.46304	-130.84514	224.40158	341.95041	-70.80739	221.28311	300.61465	-93.35599	194.45695	72.54580	-81.82906	148.81607	33.17437	-39.46944	199.68695	31.35861	-237.99698	-221.53621	696.05902	-204.69969	-204.02373	644.41296	-223.25578	-238.09482	661.94122	-173.55356	-229.51915	625.85980	-198.92398	-217.39449	509.92456	-128.96915	-275.54123	315.81824	-88.48923	-262.34543	289.86469	-116.34191	-264.58414	276.27512	-57.67265	-270.46661	245.55392	-79.91595	-241.40756	75.55052	-95.93411	-197.78136	34.74784	-41.63057	-241.16890	32.28233	-241.25552	164.07738	882.93738	-169.48976	-213.12212	893.67456	-169.33284	14.61691	1019.13770	-40.57453	-132.72766	996.29498	-230.00783	91.61034	995.21857	-218.89764
274	2.27500	160.17085	1465.11377	-129.31253	-135.05032	1389.42224	-1.73651	-215.39810	1478.97668	-135.33571	200.34628	1094.63867	-110.87597	160.93510	895.00977	-270.22440	227.57536	879.78107	-242.57745	211.55307	814.26794	-298.40753	-272.36581	1112.89062	-126.73198	-277.44223	909.90057	-262.49356	-206.77921	912.76001	-276.20078	-248.25577	841.63470	-309.50235	122.90240	1031.42737	-155.22466	-30.04830	1013.85614	-40.32360	-69.83878	1020.51160	-43.03026	-175.20209	1031.23853	-163.31631	179.23669	696.59454	-189.30594	167.33368	657.06250	-221.72955	190.17998	659.63135	-164.27147	176.19461	624.95599	-191.34872	171.56264	518.98303	-125.54191	234.09210	378.66937	-103.29650	216.31764	332.44382	-130.81880	224.39374	341.92560	-70.80833	221.28062	300.60077	-93.34447	194.47287	72.54028	-81.86784	148.81105	33.18969	-39.48940	199.68393	31.35746	-237.99046	-221.52734	696.07361	-204.68317	-204.02603	644.43317	-223.24884	-238.09827	661.95819	-173.52451	-229.52972	625.87128	-198.89354	-217.39598	509.92874	-128.95845	-275.53568	315.82953	-88.47903	-262.35089	289.87466	-116.33220	-264.57971	276.27185	-57.67035	-270.47076	245.55792	-79.92107	-241.40860	75.55128	-95.94116	-197.73253	34.72421	-41.68983	-241.15891	32.28578	-241.24393	164.06773	882.93854	-169.50438	-213.12166	893.66998	-169.32497	14.62473	1019.12097	-40.58648	-132.74049	996.31427	-229.96178	91.60462	995.22321	-218.88820
275	2.28333	160.14935	1465.12915	-129.22868	-135.05681	1389.39282	-1.68335	-215.42729	1478.99841	-135.24152	200.49496	1094.59338	-111.02065	160.53023	895.46283	-270.82919	227.12416	879.98474	-243.22221	210.90512	814.78082	-299.47421	-272.47183	1112.84473	-127.02294	-277.10605	910.19690	-263.35101	-206.42473	913.13940	-276.97867	-247.71709	842.02979	-310.45712	122.89475	1031.44287	-155.20784	-30.04853	1013.83582	-40.27664	-69.81677	1020.48431	-43.01067	-175.19688	1031.23450	-163.26067	179.25543	696.61743	-189.28894	167.34906	657.09198	-221.71967	190.17242	659.62878	-164.26775	176.20351	624.95032	-191.31299	171.52808	518.97870	-125.52780	234.07335	378.65909	-103.28693	216.30161	332.46088	-130.83186	224.37601	341.94662	-70.79601	221.27274	300.61768	-93.34258	194.46429	72.56002	-81.85484	148.81657	33.18979	-39.48519	199.68835	31.34820	-238.00064	-221.51350	696.09021	-204.68227	-204.01801	644.45630	-223.23370	-238.09779	661.95679	-173.52095	-229.51654	625.87634	-198.89006	-217.38260	509.92438	-128.95161	-275.54166	315.84109	-88.48587	-262.36755	289.88434	-116.27895	-264.57394	276.28461	-57.61100	-270.46091	245.56099	-79.90942	-241.41058	75.57283	-95.93237	-197.71802	34.71347	-41.67975	-241.16023	32.31019	-241.24922	164.08713	882.95898	-169.49113	-213.11916	893.70093	-169.27823	14.62338	1019.11395	-40.51911	-132.74103	996.33362	-229.93329	91.61874	995.24347	-218.87059
276	2.29167	160.14751	1465.16650	-129.05981	-135.10425	1389.34033	-1.59805	-215.43851	1479.02930	-135.13509	200.65361	1094.54712	-111.19771	159.84534	895.97449	-271.88681	226.56506	880.25598	-244.48567	210.17824	815.30511	-300.58917	-272.54288	1112.79114	-127.36518	-276.61996	910.52124	-264.12213	-205.87871	913.64117	-277.74725	-247.00507	842.55505	-311.52087	122.89981	1031.44263	-155.17885	-30.03732	1013.83942	-40.25460	-69.79924	1020.47607	-42.95820	-175.19392	1031.24170	-163.22400	179.22791	696.61420	-189.27116	167.31993	657.08685	-221.69742	190.13776	659.62604	-164.22409	176.16661	624.95239	-191.27824	171.53000	518.99762	-125.50134	234.07108	378.66586	-103.24935	216.30682	332.45340	-130.80325	224.37282	341.94531	-70.76759	221.27682	300.62540	-93.30449	194.46118	72.54377	-81.83033	148.81186	33.16775	-39.47077	199.66620	31.37098	-237.98029	-221.53435	696.09473	-204.63647	-204.02141	644.43359	-223.21112	-238.08394	661.96863	-173.49519	-229.50858	625.88336	-198.87395	-217.38599	509.93439	-128.92151	-275.52701	315.84222	-88.48105	-262.34836	289.87640	-116.28713	-264.57904	276.28079	-57.62262	-270.45633	245.55824	-79.90746	-241.39319	75.55603	-95.93233	-197.73859	34.72181	-41.64669	-241.16817	32.30916	-241.23759	164.10504	882.97601	-169.45169	-213.12753	893.68707	-169.22908	14.61682	1019.10681	-40.47496	-132.72652	996.32080	-229.88754	91.61107	995.25653	-218.83553
277	2.30000	160.14465	1465.18896	-128.93849	-135.12148	1389.28516	-1.51888	-215.43733	1479.01978	-135.03481	200.85291	1094.45789	-111.43026	159.35603	896.41974	-272.54269	226.05382	880.62561	-245.42506	209.43336	815.80011	-301.71933	-272.57925	1112.75037	-127.65625	-276.12268	910.81830	-265.09677	-205.45888	914.07556	-278.57913	-246.44945	843.02362	-312.54059	122.90096	1031.43591	-155.10193	-30.02673	1013.83954	-40.24150	-69.79796	1020.48401	-42.92901	-175.19571	1031.24890	-163.18895	179.22003	696.62250	-189.24480	167.31645	657.10779	-221.67966	190.11925	659.62817	-164.21109	176.16199	624.96765	-191.26141	171.54233	518.97760	-125.48717	234.06648	378.66174	-103.22334	216.29086	332.45728	-130.79657	224.35089	341.93253	-70.76810	221.27504	300.61462	-93.28654	194.44348	72.55475	-81.81823	148.80353	33.19849	-39.47456	199.69391	31.35576	-237.97102	-221.50552	696.11493	-204.61221	-204.01164	644.44257	-223.16602	-238.08209	661.96191	-173.48148	-229.51303	625.87848	-198.86647	-217.37914	509.93808	-128.90344	-275.51810	315.82986	-88.48019	-262.34891	289.88333	-116.28718	-264.56506	276.27628	-57.62448	-270.44763	245.56284	-79.88468	-241.39888	75.56252	-95.91982	-197.75256	34.72945	-41.64863	-241.19096	32.28991	-241.19199	164.11574	882.99078	-169.42877	-213.08719	893.69409	-169.20757	14.63564	1019.10345	-40.47716	-132.72281	996.34729	-229.88737	91.59729	995.24731	-218.78958
278	2.30833	160.13522	1465.20740	-128.83633	-135.15347	1389.24829	-1.46608	-215.45056	1479.01880	-134.95706	201.06969	1094.39478	-111.69955	158.71898	897.02124	-273.28741	225.49419	881.00427	-246.33798	208.60820	816.42023	-303.09634	-272.57144	1112.70593	-127.96522	-275.71124	911.04456	-265.98816	-204.91582	914.48706	-279.22119	-245.79181	843.50195	-313.55939	122.89540	1031.43567	-155.01825	-30.04780	1013.83722	-40.17846	-69.78608	1020.47089	-42.91217	-175.19345	1031.25708	-163.16817	179.22639	696.60956	-189.21658	167.30220	657.10773	-221.66052	190.14375	659.62738	-164.21472	176.14951	624.96075	-191.24403	171.53476	518.98157	-125.49878	234.05843	378.67487	-103.24387	216.28781	332.44711	-130.78041	224.36638	341.94028	-70.76923	221.26192	300.60980	-93.30891	194.45911	72.54823	-81.85191	148.80368	33.18496	-39.49980	199.68289	31.35980	-237.98203	-221.49548	696.10785	-204.57275	-203.99210	644.44379	-223.14789	-238.07312	661.97168	-173.48512	-229.50624	625.89551	-198.84367	-217.38202	509.93396	-128.89595	-275.53088	315.83542	-88.47359	-262.33298	289.87469	-116.28371	-264.55695	276.28680	-57.62031	-270.45197	245.56128	-79.88605	-241.40001	75.55915	-95.94331	-197.77734	34.73819	-41.62870	-241.17535	32.28044	-241.21576	164.11612	882.98743	-169.38556	-213.08685	893.69708	-169.16953	14.61046	1019.09888	-40.41844	-132.70636	996.34326	-229.83411	91.59460	995.24902	-218.79593
279	2.31667	160.12770	1465.22400	-128.72083	-135.17508	1389.20532	-1.36791	-215.44810	1479.02295	-134.87621	201.22391	1094.32910	-111.91588	158.14081	897.64685	-274.38135	224.87976	881.34637	-247.59583	207.71086	817.10956	-304.28549	-272.65570	1112.64709	-128.28970	-275.14471	911.30579	-266.99219	-204.44157	914.95740	-279.90570	-245.08632	843.99176	-314.70685	122.92894	1031.44226	-154.96149	-30.05802	1013.82684	-40.11905	-69.79631	1020.46161	-42.86203	-175.18837	1031.27307	-163.12158	179.20000	696.61761	-189.21539	167.29343	657.12823	-221.63866	190.11671	659.63153	-164.17445	176.16231	624.97955	-191.23006	171.53746	518.98639	-125.48055	234.05983	378.67288	-103.20691	216.30806	332.46002	-130.77405	224.37337	341.92920	-70.76048	221.27095	300.60345	-93.29946	194.43626	72.54743	-81.85744	148.81131	33.18982	-39.49038	199.68407	31.36776	-238.00424	-221.49373	696.11743	-204.57338	-203.97479	644.46490	-223.13640	-238.06871	661.96912	-173.46317	-229.49655	625.89276	-198.82034	-217.37828	509.94019	-128.87483	-275.50735	315.82092	-88.43880	-262.32690	289.87451	-116.27636	-264.55447	276.27075	-57.62679	-270.44724	245.55206	-79.89095	-241.41577	75.56097	-95.92412	-197.76338	34.72923	-41.62454	-241.19304	32.30066	-241.22209	164.11678	883.00214	-169.36937	-213.08206	893.70593	-169.14954	14.60501	1019.09534	-40.36336	-132.70331	996.35962	-229.80267	91.58739	995.26807	-218.75932
280	2.32500	160.09914	1465.24744	-128.62029	-135.19182	1389.18823	-1.31891	-215.46248	1479.01184	-134.79747	201.33957	1094.27722	-112.08144	157.51303	898.32642	-275.22241	224.34897	881.79590	-248.69424	206.79539	817.77209	-305.76883	-272.76151	1112.57031	-128.70509	-274.71210	911.65979	-267.88065	-203.88034	915.51599	-280.99734	-244.45853	844.48499	-315.82663	122.91742	1031.46375	-154.91470	-30.05453	1013.82959	-40.06909	-69.78609	1020.46136	-42.85158	-175.18840	1031.28699	-163.08842	179.20618	696.64410	-189.17403	167.30002	657.12830	-221.61890	190.14709	659.65466	-164.13039	176.15750	624.98865	-191.17429	171.54468	518.98193	-125.42841	234.05573	378.67950	-103.19721	216.30235	332.46115	-130.73927	224.36195	341.94092	-70.75363	221.27232	300.62784	-93.29746	194.44151	72.55561	-81.84832	148.81038	33.17835	-39.50024	199.68655	31.37414	-237.99339	-221.48224	696.12830	-204.53802	-203.99425	644.47559	-223.11543	-238.06870	661.97467	-173.42253	-229.49460	625.89935	-198.78334	-217.37355	509.94879	-128.86633	-275.50381	315.82910	-88.44812	-262.33405	289.86572	-116.25040	-264.55743	276.27774	-57.60370	-270.45682	245.56578	-79.86017	-241.41455	75.56691	-95.92635	-197.78581	34.74514	-41.62543	-241.16879	32.31023	-241.23795	164.13033	883.01984	-169.34544	-213.06470	893.70593	-169.11409	14.60008	1019.08008	-40.33238	-132.69040	996.36469	-229.76585	91.59669	995.28217	-218.72691
